<svg width="64" height="65" viewBox="0 0 64 65" fill="none" xmlns="http://www.w3.org/2000/svg">
<g clip-path="url(#clip0_643_37254)">
<mask id="mask0_643_37254" style="mask-type:luminance" maskUnits="userSpaceOnUse" x="0" y="0" width="64" height="65">
<path d="M0 0.5H64V64.5H0V0.5Z" fill="white"/>
</mask>
<g mask="url(#mask0_643_37254)">
<path fill-rule="evenodd" clip-rule="evenodd" d="M32.0013 36.2709L40.7823 45.052C41.8237 46.0934 43.5122 46.0934 44.5536 45.052C45.5949 44.0106 45.5949 42.3221 44.5536 41.2807L33.8869 30.6141C33.8252 30.5523 33.7606 30.4937 33.693 30.4383C33.6255 30.3829 33.5554 30.3309 33.4828 30.2824C33.4102 30.2339 33.3354 30.1891 33.2583 30.1479C33.1813 30.1067 33.1025 30.0694 33.0218 30.036C32.9411 30.0026 32.859 29.9732 32.7754 29.9478C32.6918 29.9225 32.6072 29.9013 32.5215 29.8842C32.4359 29.8672 32.3496 29.8544 32.2626 29.8458C32.1758 29.8373 32.0887 29.833 32.0013 29.833C31.914 29.833 31.8269 29.8373 31.7399 29.8458C31.653 29.8544 31.5667 29.8672 31.481 29.8842C31.3954 29.9013 31.3108 29.9225 31.2272 29.9478C31.1436 29.9732 31.0615 30.0026 30.9808 30.036C30.9001 30.0694 30.8213 30.1067 30.7442 30.1479C30.6672 30.1891 30.5924 30.2339 30.5198 30.2824C30.4472 30.3309 30.3771 30.3829 30.3096 30.4383C30.2421 30.4937 30.1774 30.5523 30.1157 30.6141L19.449 41.2807C18.4076 42.3221 18.4076 44.0106 19.449 45.052C20.4904 46.0934 22.1789 46.0934 23.2203 45.052L32.0013 36.2709Z" fill="#00C47E"/>
<path fill-rule="evenodd" clip-rule="evenodd" d="M32.0026 29.833C30.5299 29.833 29.3359 31.0269 29.3359 32.4997V56.4997C29.3359 57.9724 30.5299 59.1664 32.0026 59.1664C33.4754 59.1664 34.6693 57.9724 34.6693 56.4997V32.4997C34.6693 31.0269 33.4754 29.833 32.0026 29.833Z" fill="#00C47E"/>
<path fill-rule="evenodd" clip-rule="evenodd" d="M57.7705 42.097C56.7962 44.3313 55.2389 46.0318 53.0987 47.1986C51.8057 47.9035 51.3289 49.5233 52.0338 50.8163C52.7388 52.1094 54.3585 52.5862 55.6516 51.8812C58.8618 50.1311 61.1977 47.5803 62.6592 44.2288C64.1208 40.8773 64.4006 37.4299 63.4987 33.8866C62.5969 30.3433 60.7029 27.4492 57.8169 25.2043C54.931 22.9594 51.6599 21.8357 48.0036 21.8332H46.6271C45.6427 18.9417 44.2218 16.4034 42.3642 14.2183C40.09 11.543 37.1879 9.42831 33.6579 7.87424C30.1279 6.32017 26.6085 5.60778 23.0996 5.73706C19.5907 5.86635 16.1332 6.8358 12.7271 8.64541C9.3211 10.455 6.58251 12.7775 4.51134 15.6129C2.44017 18.4483 1.06058 21.7635 0.372569 25.5586C-0.315445 29.3537 -0.187445 32.9422 0.756569 36.3242C1.70058 39.7062 3.4496 42.8423 6.00363 45.7324C6.97887 46.836 8.66412 46.94 9.7677 45.9648C10.8713 44.9895 10.9753 43.3043 10.0001 42.2007C7.98684 39.9226 6.61799 37.4858 5.89354 34.8903C5.16909 32.2949 5.07803 29.5015 5.62036 26.51C6.16269 23.5185 7.22858 20.9347 8.81803 18.7588C10.4075 16.5829 12.5446 14.7817 15.2295 13.3553C17.9143 11.9288 20.6031 11.166 23.2959 11.0668C25.9887 10.9676 28.7264 11.5305 31.509 12.7555C34.2915 13.9805 36.5555 15.6195 38.3007 17.6726C40.046 19.7257 41.2991 22.2239 42.0601 25.1674C42.0785 25.2383 42.0997 25.3084 42.1237 25.3775C42.1479 25.4467 42.1748 25.5148 42.2045 25.5817C42.2342 25.6486 42.2666 25.7143 42.3017 25.7786C42.3369 25.8429 42.3746 25.9056 42.4149 25.9668C42.4552 26.0279 42.4979 26.0873 42.5431 26.145C42.5883 26.2027 42.6358 26.2584 42.6855 26.3121C42.7353 26.3658 42.7873 26.4174 42.8413 26.4669C42.8953 26.5164 42.9513 26.5635 43.0092 26.6083C43.0672 26.6532 43.1268 26.6956 43.1882 26.7355C43.2496 26.7754 43.3126 26.8128 43.377 26.8475C43.4416 26.8822 43.5074 26.9143 43.5745 26.9436C43.6416 26.9729 43.7098 26.9995 43.7791 27.0232C43.8485 27.0469 43.9186 27.0677 43.9896 27.0856C44.0607 27.1035 44.1324 27.1185 44.2046 27.1305C44.2768 27.1425 44.3494 27.1515 44.4224 27.1575C44.4955 27.1636 44.5686 27.1666 44.6418 27.1666H48.0001C50.4377 27.1682 52.6184 27.9173 54.5423 29.4139C56.4663 30.9106 57.7289 32.84 58.3301 35.2022C58.9314 37.5644 58.7449 39.8627 57.7705 42.097Z" fill="#00C47E"/>
<path fill-rule="evenodd" clip-rule="evenodd" d="M32.0013 36.2709L40.7823 45.052C41.8237 46.0934 43.5122 46.0934 44.5536 45.052C45.5949 44.0106 45.5949 42.3221 44.5536 41.2807L33.8869 30.6141C33.8252 30.5523 33.7606 30.4937 33.693 30.4383C33.6255 30.3829 33.5554 30.3309 33.4828 30.2824C33.4102 30.2339 33.3354 30.1891 33.2583 30.1479C33.1813 30.1067 33.1025 30.0694 33.0218 30.036C32.9411 30.0026 32.859 29.9732 32.7754 29.9478C32.6918 29.9225 32.6072 29.9013 32.5215 29.8842C32.4359 29.8672 32.3496 29.8544 32.2626 29.8458C32.1758 29.8373 32.0887 29.833 32.0013 29.833C31.914 29.833 31.8269 29.8373 31.7399 29.8458C31.653 29.8544 31.5667 29.8672 31.481 29.8842C31.3954 29.9013 31.3108 29.9225 31.2272 29.9478C31.1436 29.9732 31.0615 30.0026 30.9808 30.036C30.9001 30.0694 30.8213 30.1067 30.7442 30.1479C30.6672 30.1891 30.5924 30.2339 30.5198 30.2824C30.4472 30.3309 30.3771 30.3829 30.3096 30.4383C30.2421 30.4937 30.1774 30.5523 30.1157 30.6141L19.449 41.2807C18.4076 42.3221 18.4076 44.0106 19.449 45.052C20.4904 46.0934 22.1789 46.0934 23.2203 45.052L32.0013 36.2709Z" fill="#00C47E"/>
</g>
</g>
<defs>
<clipPath id="clip0_643_37254">
<rect width="64" height="64" fill="white" transform="translate(0 0.5)"/>
</clipPath>
</defs>
</svg>
