<svg width="64" height="64" viewBox="0 0 64 64" fill="none" xmlns="http://www.w3.org/2000/svg">
<path d="M42.6667 60.6668H21.3333C11.6 60.6668 6 55.0668 6 45.3335V18.6668C6 8.9335 11.6 3.3335 21.3333 3.3335H42.6667C52.4 3.3335 58 8.9335 58 18.6668V45.3335C58 55.0668 52.4 60.6668 42.6667 60.6668ZM21.3333 7.3335C13.7067 7.3335 10 11.0402 10 18.6668V45.3335C10 52.9602 13.7067 56.6668 21.3333 56.6668H42.6667C50.2933 56.6668 54 52.9602 54 45.3335V18.6668C54 11.0402 50.2933 7.3335 42.6667 7.3335H21.3333Z" fill="#00C47E"/>
<path d="M49.3337 24.6667H44.0003C39.947 24.6667 36.667 21.3867 36.667 17.3333V12C36.667 10.9067 37.5737 10 38.667 10C39.7603 10 40.667 10.9067 40.667 12V17.3333C40.667 19.1733 42.1603 20.6667 44.0003 20.6667H49.3337C50.427 20.6667 51.3337 21.5733 51.3337 22.6667C51.3337 23.76 50.427 24.6667 49.3337 24.6667Z" fill="#00C47E"/>
<path d="M31.9997 36.6665H21.333C20.2397 36.6665 19.333 35.7598 19.333 34.6665C19.333 33.5732 20.2397 32.6665 21.333 32.6665H31.9997C33.093 32.6665 33.9997 33.5732 33.9997 34.6665C33.9997 35.7598 33.093 36.6665 31.9997 36.6665Z" fill="#00C47E"/>
<path d="M42.6663 47.3335H21.333C20.2397 47.3335 19.333 46.4268 19.333 45.3335C19.333 44.2402 20.2397 43.3335 21.333 43.3335H42.6663C43.7597 43.3335 44.6663 44.2402 44.6663 45.3335C44.6663 46.4268 43.7597 47.3335 42.6663 47.3335Z" fill="#00C47E"/>
</svg>
