<svg width="20" height="20" viewBox="0 0 20 20" fill="none" xmlns="http://www.w3.org/2000/svg">
<path d="M12.5013 18.9584H7.5013C2.9763 18.9584 1.04297 17.025 1.04297 12.5V7.50002C1.04297 2.97502 2.9763 1.04169 7.5013 1.04169H9.16797C9.50964 1.04169 9.79297 1.32502 9.79297 1.66669C9.79297 2.00835 9.50964 2.29169 9.16797 2.29169H7.5013C3.65964 2.29169 2.29297 3.65835 2.29297 7.50002V12.5C2.29297 16.3417 3.65964 17.7084 7.5013 17.7084H12.5013C16.343 17.7084 17.7096 16.3417 17.7096 12.5V10.8334C17.7096 10.4917 17.993 10.2084 18.3346 10.2084C18.6763 10.2084 18.9596 10.4917 18.9596 10.8334V12.5C18.9596 17.025 17.0263 18.9584 12.5013 18.9584Z" fill="#25292A"/>
<path d="M7.08214 14.7417C6.5738 14.7417 6.10714 14.5583 5.76547 14.225C5.35714 13.8167 5.18214 13.225 5.2738 12.6L5.63214 10.0917C5.69881 9.60832 6.01547 8.98332 6.35714 8.64165L12.9238 2.07499C14.5821 0.416655 16.2655 0.416655 17.9238 2.07499C18.8321 2.98332 19.2405 3.90832 19.1571 4.83332C19.0821 5.58332 18.6821 6.31665 17.9238 7.06665L11.3571 13.6333C11.0155 13.975 10.3905 14.2917 9.90714 14.3583L7.3988 14.7167C7.29047 14.7417 7.18214 14.7417 7.08214 14.7417ZM13.8071 2.95832L7.24047 9.52499C7.08214 9.68332 6.8988 10.05 6.86547 10.2667L6.50714 12.775C6.4738 13.0167 6.5238 13.2167 6.6488 13.3417C6.7738 13.4667 6.9738 13.5167 7.21547 13.4833L9.7238 13.125C9.94047 13.0917 10.3155 12.9083 10.4655 12.75L17.0321 6.18332C17.5738 5.64165 17.8571 5.15832 17.8988 4.70832C17.9488 4.16665 17.6655 3.59165 17.0321 2.94999C15.6988 1.61665 14.7821 1.99165 13.8071 2.95832Z" fill="#25292A"/>
<path d="M16.5403 8.19167C16.482 8.19167 16.4237 8.18334 16.3737 8.16667C14.182 7.55 12.4403 5.80834 11.8237 3.61667C11.732 3.28334 11.9237 2.94167 12.257 2.84167C12.5903 2.75 12.932 2.94167 13.0237 3.275C13.5237 5.05 14.932 6.45834 16.707 6.95834C17.0403 7.05 17.232 7.4 17.1403 7.73334C17.0653 8.01667 16.8153 8.19167 16.5403 8.19167Z" fill="#25292A"/>
</svg>
