<svg width="24" height="24" viewBox="0 0 24 24" fill="none" xmlns="http://www.w3.org/2000/svg">
<path d="M3.5 20C3.0875 20 2.73441 19.8531 2.44075 19.5592C2.14691 19.2656 2 18.9125 2 18.5V13.8C2 13.5333 2.05416 13.2792 2.1625 13.0375C2.27083 12.7959 2.41666 12.5833 2.6 12.4L7 8V4.5C7 4.0875 7.1469 3.73434 7.44075 3.4405C7.7344 3.14684 8.0875 3 8.5 3H15.5C15.9125 3 16.2656 3.14684 16.5595 3.4405C16.8531 3.73434 17 4.0875 17 4.5V8L21.55 12.55C21.6833 12.6834 21.7917 12.844 21.875 13.032C21.9583 13.22 22 13.4177 22 13.625V18.5C22 18.9125 21.8531 19.2656 21.5595 19.5592C21.2656 19.8531 20.9125 20 20.5 20H3.5ZM12 4.5H8.5V7.975C8.5 8.18235 8.45835 8.38 8.375 8.568C8.29165 8.756 8.18335 8.91665 8.05 9.05L4.8 12.3H19.2L15.95 9.05C15.8166 8.91665 15.7084 8.756 15.625 8.568C15.5416 8.38 15.5 8.18235 15.5 7.975V4.5H12ZM3.5 18.5H20.5V13.8H3.5V18.5ZM10.5 16.65C10.3666 16.65 10.25 16.6 10.15 16.5C10.05 16.4 10 16.2833 10 16.15C10 16.0166 10.05 15.9 10.15 15.8C10.25 15.7 10.3666 15.65 10.5 15.65H13.5C13.6334 15.65 13.75 15.7 13.85 15.8C13.95 15.9 14 16.0166 14 16.15C14 16.2833 13.95 16.4 13.85 16.5C13.75 16.6 13.6334 16.65 13.5 16.65H10.5Z" fill="#51595A"/>
</svg>
