<svg width="20" height="17" viewBox="0 0 20 17" fill="none" xmlns="http://www.w3.org/2000/svg">
<path d="M1.5 17C1.0875 17 0.734415 16.8531 0.44075 16.5592C0.146915 16.2656 0 15.9125 0 15.5V10.8C0 10.5333 0.0541649 10.2792 0.1625 10.0375C0.270835 9.79585 0.416665 9.58335 0.6 9.4L5 5V1.5C5 1.0875 5.1469 0.734335 5.44075 0.4405C5.7344 0.146835 6.0875 0 6.5 0H13.5C13.9125 0 14.2656 0.146835 14.5595 0.4405C14.8531 0.734335 15 1.0875 15 1.5V5L19.55 9.55C19.6833 9.68335 19.7917 9.844 19.875 10.032C19.9583 10.22 20 10.4177 20 10.625V15.5C20 15.9125 19.8531 16.2656 19.5595 16.5592C19.2656 16.8531 18.9125 17 18.5 17H1.5ZM10 1.5H6.5V4.975C6.5 5.18235 6.45835 5.38 6.375 5.568C6.29165 5.756 6.18335 5.91665 6.05 6.05L2.8 9.3H17.2L13.95 6.05C13.8166 5.91665 13.7084 5.756 13.625 5.568C13.5416 5.38 13.5 5.18235 13.5 4.975V1.5H10ZM1.5 15.5H18.5V10.8H1.5V15.5ZM8.5 13.65C8.36665 13.65 8.25 13.6 8.15 13.5C8.05 13.4 8 13.2833 8 13.15C8 13.0166 8.05 12.9 8.15 12.8C8.25 12.7 8.36665 12.65 8.5 12.65H11.5C11.6334 12.65 11.75 12.7 11.85 12.8C11.95 12.9 12 13.0166 12 13.15C12 13.2833 11.95 13.4 11.85 13.5C11.75 13.6 11.6334 13.65 11.5 13.65H8.5Z" fill="#51595A"/>
</svg>
