<svg width="20" height="20" viewBox="0 0 20 20" fill="none" xmlns="http://www.w3.org/2000/svg">
<path d="M7.64245 12.9833C7.48411 12.9833 7.32578 12.925 7.20078 12.8C6.95911 12.5583 6.95911 12.1583 7.20078 11.9167L11.9174 7.19999C12.1591 6.95832 12.5591 6.95832 12.8008 7.19999C13.0424 7.44165 13.0424 7.84165 12.8008 8.08332L8.08411 12.8C7.96745 12.925 7.80078 12.9833 7.64245 12.9833Z" fill="#25292A"/>
<path d="M12.3591 12.9833C12.2008 12.9833 12.0424 12.925 11.9174 12.8L7.20078 8.08332C6.95911 7.84165 6.95911 7.44165 7.20078 7.19999C7.44245 6.95832 7.84245 6.95832 8.08411 7.19999L12.8008 11.9167C13.0424 12.1583 13.0424 12.5583 12.8008 12.8C12.6758 12.925 12.5174 12.9833 12.3591 12.9833Z" fill="#25292A"/>
<path d="M12.5013 18.9584H7.5013C2.9763 18.9584 1.04297 17.025 1.04297 12.5V7.50002C1.04297 2.97502 2.9763 1.04169 7.5013 1.04169H12.5013C17.0263 1.04169 18.9596 2.97502 18.9596 7.50002V12.5C18.9596 17.025 17.0263 18.9584 12.5013 18.9584ZM7.5013 2.29169C3.65964 2.29169 2.29297 3.65835 2.29297 7.50002V12.5C2.29297 16.3417 3.65964 17.7084 7.5013 17.7084H12.5013C16.343 17.7084 17.7096 16.3417 17.7096 12.5V7.50002C17.7096 3.65835 16.343 2.29169 12.5013 2.29169H7.5013Z" fill="#25292A"/>
</svg>
