<svg width="20" height="20" viewBox="0 0 20 20" fill="none" xmlns="http://www.w3.org/2000/svg">
<path d="M10.0003 18.9584C5.05866 18.9584 1.04199 14.9417 1.04199 10C1.04199 5.05835 5.05866 1.04169 10.0003 1.04169C14.942 1.04169 18.9587 5.05835 18.9587 10C18.9587 14.9417 14.942 18.9584 10.0003 18.9584ZM10.0003 2.29169C5.75033 2.29169 2.29199 5.75002 2.29199 10C2.29199 14.25 5.75033 17.7084 10.0003 17.7084C14.2503 17.7084 17.7087 14.25 17.7087 10C17.7087 5.75002 14.2503 2.29169 10.0003 2.29169Z" fill="#F14D4D"/>
<path d="M4.08288 16.4583C3.92454 16.4583 3.76621 16.4 3.64121 16.275C3.39954 16.0333 3.39954 15.6333 3.64121 15.3917L15.3079 3.72501C15.5495 3.48335 15.9495 3.48335 16.1912 3.72501C16.4329 3.96668 16.4329 4.36668 16.1912 4.60835L4.52454 16.275C4.39954 16.4 4.24121 16.4583 4.08288 16.4583Z" fill="#F14D4D"/>
</svg>
