<svg width="20" height="20" viewBox="0 0 20 20" fill="none" xmlns="http://www.w3.org/2000/svg">
<path d="M9.99935 18.9584C5.05768 18.9584 1.04102 14.9417 1.04102 10C1.04102 5.05835 5.05768 1.04169 9.99935 1.04169C14.941 1.04169 18.9577 5.05835 18.9577 10C18.9577 14.9417 14.941 18.9584 9.99935 18.9584ZM9.99935 2.29169C5.74935 2.29169 2.29102 5.75002 2.29102 10C2.29102 14.25 5.74935 17.7084 9.99935 17.7084C14.2493 17.7084 17.7077 14.25 17.7077 10C17.7077 5.75002 14.2493 2.29169 9.99935 2.29169Z" fill="#25292A"/>
<path d="M4.08385 16.4583C3.92552 16.4583 3.76719 16.4 3.64219 16.275C3.40052 16.0333 3.40052 15.6333 3.64219 15.3917L15.3089 3.72501C15.5505 3.48335 15.9505 3.48335 16.1922 3.72501C16.4339 3.96668 16.4339 4.36668 16.1922 4.60835L4.52552 16.275C4.40052 16.4 4.24219 16.4583 4.08385 16.4583Z" fill="#25292A"/>
</svg>
