<svg width="64" height="64" viewBox="0 0 64 64" fill="none" xmlns="http://www.w3.org/2000/svg">
<path d="M48.0002 21.0934C47.9202 21.0934 47.8668 21.0934 47.7868 21.0934H47.6535C42.6135 20.9334 38.8535 17.0401 38.8535 12.2401C38.8535 7.33338 42.8535 3.36005 47.7335 3.36005C52.6135 3.36005 56.6135 7.36005 56.6135 12.2401C56.5869 17.0667 52.8268 20.9601 48.0268 21.1201C48.0268 21.0934 48.0268 21.0934 48.0002 21.0934ZM47.7335 7.33339C45.0402 7.33339 42.8535 9.52007 42.8535 12.2134C42.8535 14.8534 44.9069 16.9867 47.5469 17.0934C47.5735 17.0667 47.7868 17.0667 48.0268 17.0934C50.6135 16.9601 52.6135 14.8267 52.6402 12.2134C52.6402 9.52007 50.4535 7.33339 47.7335 7.33339Z" fill="#00C47E"/>
<path d="M48.026 40.7467C46.986 40.7467 45.946 40.6667 44.906 40.48C43.8127 40.2934 43.0927 39.2534 43.2794 38.16C43.466 37.0667 44.506 36.3467 45.5993 36.5334C48.8793 37.0934 52.346 36.4801 54.666 34.9334C55.9194 34.1067 56.586 33.0667 56.586 32.0267C56.586 30.9867 55.8927 29.9734 54.666 29.1467C52.346 27.6 48.826 26.9867 45.5194 27.5734C44.426 27.7867 43.386 27.04 43.1994 25.9467C43.0127 24.8534 43.7327 23.8134 44.826 23.6267C49.1727 22.8534 53.6794 23.68 56.8794 25.8134C59.226 27.3867 60.586 29.6267 60.586 32.0267C60.586 34.4 59.2527 36.6667 56.8794 38.2667C54.4527 39.8667 51.306 40.7467 48.026 40.7467Z" fill="#00C47E"/>
<path d="M15.9193 21.0933C15.8926 21.0933 15.866 21.0933 15.866 21.0933C11.066 20.9333 7.30596 17.04 7.2793 12.24C7.2793 7.3333 11.2793 3.33331 16.1593 3.33331C21.0393 3.33331 25.0393 7.33332 25.0393 12.2133C25.0393 17.04 21.2793 20.9333 16.4793 21.0933L15.9193 19.0933L16.106 21.0933C16.0526 21.0933 15.9726 21.0933 15.9193 21.0933ZM16.186 17.0933C16.346 17.0933 16.4793 17.0933 16.6393 17.12C19.0126 17.0133 21.0926 14.88 21.0926 12.24C21.0926 9.54664 18.906 7.35997 16.2126 7.35997C13.5193 7.35997 11.3326 9.54664 11.3326 12.24C11.3326 14.8533 13.3593 16.96 15.946 17.12C15.9726 17.0933 16.0793 17.0933 16.186 17.0933Z" fill="#00C47E"/>
<path d="M15.894 40.7467C12.614 40.7467 9.46732 39.8667 7.04065 38.2667C4.69398 36.6934 3.33398 34.4267 3.33398 32.0267C3.33398 29.6534 4.69398 27.3867 7.04065 25.8134C10.2406 23.68 14.7473 22.8534 19.094 23.6267C20.1873 23.8134 20.9073 24.8534 20.7207 25.9467C20.534 27.04 19.494 27.7867 18.4007 27.5734C15.094 26.9867 11.6007 27.6 9.25399 29.1467C8.00065 29.9734 7.33398 30.9867 7.33398 32.0267C7.33398 33.0667 8.02732 34.1067 9.25399 34.9334C11.574 36.4801 15.0406 37.0934 18.3206 36.5334C19.414 36.3467 20.454 37.0934 20.6407 38.16C20.8273 39.2534 20.1073 40.2934 19.014 40.48C17.974 40.6667 16.934 40.7467 15.894 40.7467Z" fill="#00C47E"/>
<path d="M32.0002 41.0133C31.9202 41.0133 31.8668 41.0133 31.7868 41.0133H31.6535C26.6135 40.8533 22.8535 36.96 22.8535 32.16C22.8535 27.2533 26.8535 23.28 31.7335 23.28C36.6135 23.28 40.6135 27.28 40.6135 32.16C40.5868 36.9866 36.8268 40.88 32.0268 41.04C32.0268 41.0133 32.0268 41.0133 32.0002 41.0133ZM31.7335 27.2533C29.0402 27.2533 26.8535 29.44 26.8535 32.1333C26.8535 34.7733 28.9069 36.9067 31.5469 37.0133C31.5735 36.9867 31.7868 36.9867 32.0268 37.0133C34.6135 36.88 36.6135 34.7467 36.6402 32.1333C36.6402 29.4667 34.4535 27.2533 31.7335 27.2533Z" fill="#00C47E"/>
<path d="M31.9988 60.6932C28.7988 60.6932 25.5988 59.8666 23.1188 58.1866C20.7721 56.6133 19.4121 54.3733 19.4121 51.9733C19.4121 49.5999 20.7454 47.3066 23.1188 45.7332C28.1054 42.4266 35.9188 42.4266 40.8788 45.7332C43.2255 47.3066 44.5855 49.5466 44.5855 51.9466C44.5855 54.3199 43.2521 56.6133 40.8788 58.1866C38.3988 59.8399 35.1988 60.6932 31.9988 60.6932ZM25.3321 49.0933C24.0788 49.9199 23.4121 50.9599 23.4121 51.9999C23.4121 53.0399 24.1054 54.0533 25.3321 54.8799C28.9321 57.3066 35.0388 57.3066 38.6388 54.8799C39.8921 54.0533 40.5588 53.0133 40.5588 51.9733C40.5588 50.9333 39.8655 49.9199 38.6388 49.0933C35.0655 46.6666 28.9588 46.6933 25.3321 49.0933Z" fill="#00C47E"/>
</svg>
