<svg width="64" height="64" viewBox="0 0 64 64" fill="none" xmlns="http://www.w3.org/2000/svg">
<path d="M32.3999 51.6C31.3066 51.6 30.3999 50.6933 30.3999 49.6V44C30.3999 42.9067 31.3066 42 32.3999 42C33.4932 42 34.3999 42.9067 34.3999 44V49.6C34.3999 50.6933 33.4932 51.6 32.3999 51.6Z" fill="#00C47E"/>
<path d="M47.7333 60.6665H17.0667V55.9998C17.0667 51.9465 20.3466 48.6665 24.4 48.6665H40.4C44.4533 48.6665 47.7333 51.9465 47.7333 55.9998V60.6665ZM21.0667 56.6665H43.7333V55.9998C43.7333 54.1598 42.24 52.6665 40.4 52.6665H24.4C22.56 52.6665 21.0667 54.1598 21.0667 55.9998V56.6665Z" fill="#00C47E"/>
<path d="M48.3999 60.6665H16.3999C15.3066 60.6665 14.3999 59.7598 14.3999 58.6665C14.3999 57.5732 15.3066 56.6665 16.3999 56.6665H48.3999C49.4932 56.6665 50.3999 57.5732 50.3999 58.6665C50.3999 59.7598 49.4932 60.6665 48.3999 60.6665Z" fill="#00C47E"/>
<path d="M49.1467 33.1732C48.5867 33.1732 48.0267 32.9332 47.6267 32.4798C47.12 31.8932 46.9866 31.0665 47.3066 30.3732C48.2133 28.2932 48.6666 26.0798 48.6666 23.7598V15.7598C48.6666 14.8265 48.5066 13.9198 48.1866 12.9598C48.16 12.8798 48.1333 12.7732 48.1067 12.6665C48.0267 12.2665 48 11.8665 48 11.4932C48 10.3998 48.9066 9.49316 50 9.49316H51.6C56.3733 9.49316 60.2667 13.4932 60.2667 18.4265C60.2667 22.5065 58.5866 26.5332 55.68 29.4398C55.6266 29.4932 55.4667 29.6265 55.44 29.6532C53.8667 30.9598 52.08 32.4265 49.68 33.0932C49.4933 33.1465 49.3333 33.1732 49.1467 33.1732ZM52.48 13.5732C52.6133 14.2932 52.6666 15.0398 52.6666 15.7598V23.7598C52.6666 24.8532 52.5866 25.8932 52.4266 26.9598C52.5866 26.8265 52.72 26.7198 52.88 26.5865C55.0133 24.4532 56.2667 21.4665 56.2667 18.4265C56.2667 16.0265 54.64 13.9998 52.48 13.5732Z" fill="#00C47E"/>
<path d="M14.8801 33.0668C14.6667 33.0668 14.4801 33.0401 14.2667 32.9601C12.0801 32.2668 10.0267 30.9868 8.32006 29.2801C5.2534 25.8934 3.7334 22.1868 3.7334 18.2668C3.7334 13.4134 7.54673 9.6001 12.4001 9.6001H14.1334C14.8001 9.6001 15.4401 9.94676 15.8134 10.5068C16.1867 11.0668 16.2401 11.7868 15.9734 12.4001C15.5467 13.3601 15.3334 14.4534 15.3334 15.6001V23.6001C15.3334 25.8934 15.7867 28.1334 16.7201 30.2668C17.0401 30.9868 16.8801 31.8134 16.3734 32.4001C15.9734 32.8268 15.4401 33.0668 14.8801 33.0668ZM11.4667 13.6801C9.30673 14.1068 7.7334 15.9734 7.7334 18.2668C7.7334 21.1734 8.90673 23.9734 11.2267 26.5334C11.3334 26.6668 11.4667 26.7734 11.6001 26.8801C11.4134 25.7868 11.3334 24.6934 11.3334 23.6001V15.6001C11.3334 14.9601 11.3867 14.3201 11.4667 13.6801Z" fill="#00C47E"/>
<path d="M31.9999 44.6668C20.6133 44.6668 11.3333 35.3868 11.3333 24.0002V16.0002C11.3333 9.0135 17.0133 3.3335 23.9999 3.3335H39.9999C46.9866 3.3335 52.6666 9.0135 52.6666 16.0002V24.0002C52.6666 35.3868 43.3866 44.6668 31.9999 44.6668ZM23.9999 7.3335C19.2266 7.3335 15.3333 11.2268 15.3333 16.0002V24.0002C15.3333 33.2002 22.7999 40.6668 31.9999 40.6668C41.1999 40.6668 48.6666 33.2002 48.6666 24.0002V16.0002C48.6666 11.2268 44.7733 7.3335 39.9999 7.3335H23.9999Z" fill="#00C47E"/>
</svg>
