<svg width="64" height="64" viewBox="0 0 64 64" fill="none" xmlns="http://www.w3.org/2000/svg">
<path d="M24.4249 30.9866C24.3449 30.9866 24.2915 30.9866 24.2115 30.9866C24.0782 30.96 23.8915 30.96 23.7315 30.9866C15.9982 30.7466 10.1582 24.6666 10.1582 17.1733C10.1582 9.54665 16.3715 3.33331 23.9982 3.33331C31.6249 3.33331 37.8382 9.54665 37.8382 17.1733C37.8115 24.6666 31.9449 30.7466 24.5049 30.9866C24.4782 30.9866 24.4515 30.9866 24.4249 30.9866ZM23.9982 7.33331C18.5849 7.33331 14.1582 11.76 14.1582 17.1733C14.1582 22.5066 18.3182 26.8 23.6249 26.9866C23.7849 26.96 24.1315 26.96 24.4782 26.9866C29.7049 26.7466 33.8115 22.4533 33.8382 17.1733C33.8382 11.76 29.4115 7.33331 23.9982 7.33331Z" fill="#00C47E"/>
<path d="M44.1063 31.3334C44.0263 31.3334 43.9463 31.3334 43.8663 31.3067C42.773 31.4134 41.653 30.64 41.5463 29.5467C41.4396 28.4534 42.1063 27.4667 43.1996 27.3334C43.5196 27.3067 43.8663 27.3067 44.1596 27.3067C48.053 27.0934 51.093 23.8934 51.093 19.9734C51.093 15.92 47.813 12.64 43.7596 12.64C42.6663 12.6667 41.7596 11.76 41.7596 10.6667C41.7596 9.57335 42.6663 8.66669 43.7596 8.66669C49.9996 8.66669 55.093 13.76 55.093 20C55.093 26.1334 50.293 31.0934 44.1863 31.3334C44.1596 31.3334 44.133 31.3334 44.1063 31.3334Z" fill="#00C47E"/>
<path d="M24.4523 60.1334C19.2256 60.1334 13.9723 58.8 9.99896 56.1334C6.29229 53.68 4.26562 50.32 4.26562 46.6667C4.26562 43.0134 6.29229 39.6267 9.99896 37.1467C17.999 31.84 30.959 31.84 38.9056 37.1467C42.5856 39.6 44.639 42.96 44.639 46.6133C44.639 50.2667 42.6123 53.6534 38.9056 56.1334C34.9056 58.8 29.679 60.1334 24.4523 60.1334ZM12.2123 40.5067C9.65229 42.2134 8.26562 44.4 8.26562 46.6934C8.26562 48.96 9.67896 51.1467 12.2123 52.8267C18.8523 57.28 30.0523 57.28 36.6923 52.8267C39.2523 51.12 40.639 48.9334 40.639 46.64C40.639 44.3734 39.2256 42.1867 36.6923 40.5067C30.0523 36.08 18.8523 36.08 12.2123 40.5067Z" fill="#00C47E"/>
<path d="M48.9052 55.3333C47.9718 55.3333 47.1452 54.6933 46.9585 53.7333C46.7452 52.64 47.4385 51.6 48.5052 51.36C50.1852 51.0133 51.7318 50.3467 52.9318 49.4133C54.4518 48.2667 55.2785 46.8267 55.2785 45.3067C55.2785 43.7867 54.4518 42.3467 52.9585 41.2267C51.7852 40.32 50.3185 39.68 48.5851 39.28C47.5185 39.04 46.8251 37.9733 47.0651 36.88C47.3051 35.8133 48.3718 35.12 49.4651 35.36C51.7585 35.8667 53.7585 36.7733 55.3852 38.0267C57.8652 39.8933 59.2785 42.5333 59.2785 45.3067C59.2785 48.08 57.8385 50.72 55.3585 52.6133C53.7052 53.8933 51.6252 54.8267 49.3318 55.28C49.1718 55.3333 49.0385 55.3333 48.9052 55.3333Z" fill="#00C47E"/>
</svg>
