<svg width="64" height="64" viewBox="0 0 64 64" fill="none" xmlns="http://www.w3.org/2000/svg">
<path d="M39.9999 60.6666H23.9999C9.51992 60.6666 3.33325 54.4799 3.33325 39.9999V23.9999C3.33325 9.51992 9.51992 3.33325 23.9999 3.33325H39.9999C54.4799 3.33325 60.6666 9.51992 60.6666 23.9999V39.9999C60.6666 54.4799 54.4799 60.6666 39.9999 60.6666ZM23.9999 7.33325C11.7066 7.33325 7.33325 11.7066 7.33325 23.9999V39.9999C7.33325 52.2933 11.7066 56.6666 23.9999 56.6666H39.9999C52.2933 56.6666 56.6666 52.2933 56.6666 39.9999V23.9999C56.6666 11.7066 52.2933 7.33325 39.9999 7.33325H23.9999Z" fill="#00C47E"/>
<path d="M57.28 20.96H6.71997C5.62664 20.96 4.71997 20.0533 4.71997 18.96C4.71997 17.8666 5.59997 16.96 6.71997 16.96H57.28C58.3733 16.96 59.28 17.8666 59.28 18.96C59.28 20.0533 58.4 20.96 57.28 20.96Z" fill="#00C47E"/>
<path d="M22.72 20.5867C21.6266 20.5867 20.72 19.68 20.72 18.5867V5.62671C20.72 4.53338 21.6266 3.62671 22.72 3.62671C23.8133 3.62671 24.72 4.53338 24.72 5.62671V18.5867C24.72 19.68 23.8133 20.5867 22.72 20.5867Z" fill="#00C47E"/>
<path d="M41.28 19.3867C40.1867 19.3867 39.28 18.48 39.28 17.3867V5.62671C39.28 4.53338 40.1867 3.62671 41.28 3.62671C42.3734 3.62671 43.28 4.53338 43.28 5.62671V17.3867C43.28 18.5067 42.4 19.3867 41.28 19.3867Z" fill="#00C47E"/>
<path d="M29.5733 48.3201C28.6133 48.3201 27.7067 48.0801 26.88 47.6268C25.0667 46.5601 24 44.4268 24 41.7334V35.3334C24 32.6401 25.0667 30.4801 26.9067 29.4134C28.7467 28.3468 31.1467 28.5068 33.4667 29.8668L39.0133 33.0668C41.3333 34.4001 42.6933 36.4001 42.6933 38.5334C42.6933 40.6668 41.3333 42.6668 38.9867 44.0001L33.44 47.2001C32.16 47.9468 30.8267 48.3201 29.5733 48.3201ZM29.6 32.7201C29.3333 32.7201 29.0933 32.7734 28.9067 32.8801C28.3467 33.2001 28 34.1068 28 35.3334V41.7334C28 42.9334 28.3467 43.8401 28.9067 44.1868C29.4667 44.5068 30.4267 44.3468 31.4667 43.7334L37.0133 40.5334C38.0533 39.9201 38.6933 39.1734 38.6933 38.5334C38.6933 37.8934 38.08 37.1468 37.0133 36.5334L31.4667 33.3334C30.7733 32.9334 30.1067 32.7201 29.6 32.7201Z" fill="#00C47E"/>
</svg>
