<svg width="32" height="33" viewBox="0 0 32 33" fill="none" xmlns="http://www.w3.org/2000/svg">
<path d="M14.3478 22.3267C13.7878 22.3267 13.2678 22.1933 12.8011 21.9267C11.7344 21.3133 11.1211 20.06 11.1211 18.4733V14.5267C11.1211 12.9533 11.7344 11.6867 12.8011 11.0733C13.8678 10.46 15.2544 10.5533 16.6278 11.3533L20.0544 13.3267C21.4144 14.1133 22.2011 15.2733 22.2011 16.5C22.2011 17.7267 21.4144 18.8867 20.0544 19.6733L16.6278 21.6467C15.8544 22.1 15.0678 22.3267 14.3478 22.3267ZM14.3611 12.6733C14.1478 12.6733 13.9611 12.7133 13.8144 12.8066C13.3878 13.06 13.1344 13.6867 13.1344 14.5267V18.4733C13.1344 19.3133 13.3744 19.94 13.8144 20.1933C14.2411 20.4467 14.9078 20.34 15.6411 19.9133L19.0678 17.94C19.8011 17.5133 20.2144 16.9933 20.2144 16.5C20.2144 16.0067 19.8011 15.4733 19.0678 15.06L15.6411 13.0867C15.1611 12.8067 14.7211 12.6733 14.3611 12.6733Z" fill="#00C47E"/>
<path d="M16.0013 30.8334C8.09464 30.8334 1.66797 24.4067 1.66797 16.5001C1.66797 8.59342 8.09464 2.16675 16.0013 2.16675C23.908 2.16675 30.3346 8.59342 30.3346 16.5001C30.3346 24.4067 23.908 30.8334 16.0013 30.8334ZM16.0013 4.16675C9.2013 4.16675 3.66797 9.70008 3.66797 16.5001C3.66797 23.3001 9.2013 28.8334 16.0013 28.8334C22.8013 28.8334 28.3346 23.3001 28.3346 16.5001C28.3346 9.70008 22.8013 4.16675 16.0013 4.16675Z" fill="#00C47E"/>
</svg>
