<svg width="64" height="64" viewBox="0 0 64 64" fill="none" xmlns="http://www.w3.org/2000/svg">
<path d="M42.1602 53.8133C41.4669 53.8133 40.7469 53.7867 39.9735 53.7067C38.5869 53.6 37.0135 53.3333 35.3869 52.9333L30.9069 51.8667C18.6135 48.96 14.5869 42.4533 17.4669 30.1867L20.0802 19.0133C20.6669 16.48 21.3602 14.4267 22.2135 12.72C26.8002 3.25333 35.5735 4.10667 41.8135 5.57333L46.2669 6.61333C52.5069 8.08 56.4535 10.4 58.6669 13.9467C60.8535 17.4933 61.2002 22.0533 59.7335 28.2933L57.1202 39.44C54.8269 49.2 50.0535 53.8133 42.1602 53.8133ZM34.9869 8.66667C30.5335 8.66667 27.7069 10.5067 25.8135 14.4533C25.1202 15.8933 24.5069 17.68 23.9735 19.92L21.3602 31.0933C18.9869 41.1733 21.7335 45.5733 31.8135 47.9733L36.2935 49.04C37.7335 49.3867 39.0935 49.6 40.3202 49.7067C47.5735 50.4267 51.1735 47.2533 53.2002 38.5333L55.8135 27.3867C57.0135 22.24 56.8535 18.64 55.2535 16.0533C53.6535 13.4667 50.5069 11.7067 45.3335 10.5067L40.8802 9.46667C38.6669 8.93333 36.6935 8.66667 34.9869 8.66667Z" fill="#00C47E"/>
<path d="M22.2122 59.3333C15.3588 59.3333 10.9855 55.2267 8.1855 46.56L4.77217 36.0267C0.985502 24.2933 4.37217 17.68 16.0522 13.8933L20.2655 12.5333C21.6522 12.1067 22.6922 11.8133 23.6255 11.6533C24.3988 11.4933 25.1455 11.7867 25.5988 12.4C26.0522 13.0133 26.1322 13.8133 25.8122 14.5067C25.1188 15.92 24.5055 17.7067 23.9988 19.9467L21.3855 31.12C19.0122 41.2 21.7588 45.6 31.8388 48L36.3188 49.0667C37.7588 49.4133 39.1188 49.6267 40.3455 49.7333C41.1988 49.8133 41.8922 50.4 42.1322 51.2267C42.3455 52.0533 42.0255 52.9067 41.3322 53.3867C39.5722 54.5867 37.3588 55.6 34.5588 56.5067L30.3455 57.8933C27.2788 58.8533 24.6122 59.3333 22.2122 59.3333ZM20.7455 16.5867L17.3055 17.7067C7.7855 20.7733 5.51884 25.2533 8.5855 34.8L11.9988 45.3333C15.0922 54.8533 19.5722 57.1467 29.0922 54.08L33.3055 52.6933C33.4655 52.64 33.5988 52.5867 33.7588 52.5333L30.9322 51.8667C18.6388 48.96 14.6122 42.4533 17.4922 30.1867L20.1055 19.0133C20.2922 18.16 20.5055 17.3333 20.7455 16.5867Z" fill="#00C47E"/>
<path d="M46.6397 28.0267C46.4797 28.0267 46.3197 28 46.133 27.9733L33.1997 24.6934C32.133 24.4267 31.493 23.3334 31.7597 22.2667C32.0263 21.2 33.1197 20.56 34.1863 20.8267L47.1197 24.1067C48.1863 24.3733 48.8263 25.4667 48.5597 26.5333C48.3463 27.4133 47.5197 28.0267 46.6397 28.0267Z" fill="#00C47E"/>
<path d="M38.8257 37.04C38.6657 37.04 38.5057 37.0134 38.319 36.9867L30.559 35.0134C29.4924 34.7467 28.8524 33.6534 29.119 32.5867C29.3857 31.52 30.479 30.88 31.5457 31.1467L39.3057 33.12C40.3724 33.3867 41.0124 34.48 40.7457 35.5467C40.5324 36.4534 39.7324 37.04 38.8257 37.04Z" fill="#00C47E"/>
</svg>
